<svg xmlns="http://www.w3.org/2000/svg" viewBox="0 0 182 187">
  <style>
    /* Modo Claro*/
    .icon-path {
      fill: #1177bb; 
    }

    /* Modo Oscuro */
    @media (prefers-color-scheme: dark) {
      .icon-path {
        fill: #55ccff;
      }
    }
  </style>
  <path class="icon-path" d="M131 7.3c6.3.3 8.9 1 15.5 4.2 9.2 4.4 17.9 12.4 21.8 20.1 5.6 11.1 5.7 11.9 5.7 61.9 0 41.3-.2 46.7-1.8 52.6-3.2 11.5-13.3 23.9-24.1 29.3-10.4 5.3-13.2 5.6-57.3 5.6-25.8 0-42.6-.4-46-1.1-16.6-3.5-30.8-16.1-36.1-32.3-1.8-5.3-2.1-9.5-2.5-30.7l-.4-24.6 3.4-2.1C15.7 86.3 53.3 71 56.6 71c.2 0 .4 14.7.4 32.6 0 31.3.1 32.8 2.1 36.4 4 7.1 5.6 7.5 29.9 7.5h21.5l4.2-2.7c8.5-5.6 10.6-9.9 16.8-34.7 2.5-9.8 5.9-21.8 7.6-26.7 2.8-7.7 4.1-9.7 9.3-14.9 4.1-4.1 9-7.6 15.1-10.8 5-2.5 8.2-4.6 7.3-4.7-1 0-7.3 1.2-14 2.6-20.8 4.3-29.4 9.8-35.9 22.9-1.8 3.6-5.2 15-8.3 27.5-5 20.3-5.5 21.5-8.7 24.2-3.1 2.6-3.9 2.8-13 2.8-14.7 0-13.9 2.2-13.9-36.9V64.5l11.3-3.9c6.1-2.1 14.1-5.3 17.6-7 6.7-3.2 17.8-12.5 15.1-12.6-4.9-.1-59.1 15.5-73 21-15.2 6-35.1 18.8-38.8 24.9C6.6 91.3 6 89 6.1 73.7c.1-23.4 1-31.2 4.7-39 5-10.8 14.8-20.1 26.3-24.9 4.7-1.9 7.7-2.3 24.4-2.8 18.5-.5 54.5-.3 69.5.3"/>
</svg>
