<svg xmlns="http://www.w3.org/2000/svg" viewBox="0 0 182 187"><path fill="#17b" transform="translate(0 187)scale(.1-.1)" d="M1310 1797c63-3 89-10 155-42 92-44 179-124 218-201 56-111 57-119 57-619 0-413-2-467-18-526-32-115-133-239-241-293-104-53-132-56-573-56-258 0-426 4-460 11-166 35-308 161-361 323-18 53-21 95-25 307l-4 246 34 21c65 39 441 192 474 192 2 0 4-147 4-326 0-313 1-328 21-364 40-71 56-75 299-75h215l42 27c85 56 106 99 168 347 25 98 59 218 76 267 28 77 41 97 93 149 41 41 90 76 151 108 50 25 82 46 73 47-10 0-73-12-140-26-208-43-294-98-359-229-18-36-52-150-83-275-50-203-55-215-87-242-31-26-39-28-130-28-147 0-139-22-139 369v316l113 39c61 21 141 53 176 70 67 32 178 125 151 126-49 1-591-155-730-210-152-60-351-188-388-249-26-44-32-21-31 132 1 234 10 312 47 390 50 108 148 201 263 249 47 19 77 23 244 28 185 5 545 3 695-3z"/></svg>
